<svg xmlns="http://www.w3.org/2000/svg" version="1.1" xmlns:xlink="http://www.w3.org/1999/xlink" xmlns:svgjs="http://svgjs.dev/svgjs" width="1500" height="1500" viewBox="0 0 1500 1500"><rect width="1500" height="1500" fill="#0c1d36"></rect><g transform="matrix(0.39261876717707106,0,0,0.39261876717707106,454.6753903329731,248.38709677419354)"><svg viewBox="0 0 146 248" data-background-color="#0c1d36" preserveAspectRatio="xMidYMid meet" height="2547" width="1500" xmlns="http://www.w3.org/2000/svg" xmlns:xlink="http://www.w3.org/1999/xlink"><g id="tight-bounds" transform="matrix(1,0,0,1,0.21333333333330984,0.4000000000000057)"><svg viewBox="0 0 145.57333333333335 247.2" height="247.2" width="145.57333333333335"><g><svg viewBox="0 0 145.57333333333335 247.2" height="247.2" width="145.57333333333335"><g><svg viewBox="0 0 145.57333333333335 247.2" height="247.2" width="145.57333333333335"><g id="textblocktransform"><svg viewBox="0 0 145.57333333333335 247.2" height="247.2" width="145.57333333333335" id="textblock"><g><svg viewBox="0 0 145.57333333333335 247.2" height="247.2" width="145.57333333333335"><g transform="matrix(1,0,0,1,0,0)"><svg width="145.57333333333335" viewBox="2.25 -35.45 21.2 36.00000000000001" height="247.2" data-palette-color="#f9cc0b"><path d="M12.7 0.55L12.7 0.55Q9.03 0.55 6.28-0.68 3.53-1.9 2.25-3.25L2.25-3.25 4.8-8.5Q5.33-7.83 6.46-6.98 7.6-6.13 9.11-5.49 10.63-4.85 12.25-4.85L12.25-4.85Q14.13-4.85 15.51-5.9 16.9-6.95 16.9-9L16.9-9Q16.9-11.03 15.46-12.21 14.03-13.4 11.55-14.9L11.55-14.9Q9.53-16.13 7.58-17.51 5.63-18.9 4.34-20.91 3.05-22.93 3.05-26L3.05-26Q3.05-30.13 5.69-32.79 8.33-35.45 13.35-35.45L13.35-35.45Q15.9-35.45 17.69-34.85 19.48-34.25 20.59-33.48 21.7-32.7 22.25-32.2L22.25-32.2 19.45-27.1Q19.1-27.6 18.28-28.33 17.45-29.05 16.25-29.6 15.05-30.15 13.6-30.15L13.6-30.15Q11.58-30.15 10.56-28.99 9.55-27.83 9.55-26.25L9.55-26.25Q9.55-24.23 11.04-22.95 12.53-21.68 14.65-20.4L14.65-20.4Q17-19 19-17.59 21-16.18 22.23-14.21 23.45-12.25 23.45-9.2L23.45-9.2Q23.45-4.63 20.58-2.04 17.7 0.55 12.7 0.55Z" opacity="1" transform="matrix(1,0,0,1,0,0)" fill="#f9cc0b" class="wordmark-text-0" data-fill-palette-color="primary" id="text-0"></path></svg></g></svg></g></svg></g></svg></g><g></g></svg></g><defs></defs></svg><rect width="145.57333333333335" height="247.2" fill="none" stroke="none" visibility="hidden"></rect></g></svg></g></svg>