<svg xmlns="http://www.w3.org/2000/svg" version="1.1" xmlns:xlink="http://www.w3.org/1999/xlink" xmlns:svgjs="http://svgjs.dev/svgjs" width="1500" height="1500" viewBox="0 0 1500 1500"><rect width="1500" height="1500" fill="#282634"></rect><g transform="matrix(0.6666666666666666,0,0,0.6666666666666666,249.15376018581549,43.39462365591402)"><svg viewBox="0 0 176 248" data-background-color="#282634" preserveAspectRatio="xMidYMid meet" height="2113" width="1500" xmlns="http://www.w3.org/2000/svg" xmlns:xlink="http://www.w3.org/1999/xlink"><g id="tight-bounds" transform="matrix(1,0,0,1,0.14893820729648155,0.4000000000000057)"><svg viewBox="0 0 175.70212358540704 247.2" height="247.2" width="175.70212358540704"><g><svg viewBox="0 0 397.4975999999999 559.2499664481066" height="247.2" width="175.70212358540704"><g><rect width="397.4975999999999" height="17.129087834876294" x="0" y="307.33919664509153" fill="#dcdcdc" opacity="1" stroke-width="0" stroke="transparent" fill-opacity="1" class="rect-yte-0" data-fill-palette-color="secondary" rx="1%" id="yte-0" data-palette-color="#dcdcdc"></rect></g><g transform="matrix(1,0,0,1,0.9887999999999693,369.3088285503246)"><svg viewBox="0 0 395.52 189.94113789778203" height="189.94113789778203" width="395.52"><g id="textblocktransform"><svg viewBox="0 0 395.52 189.94113789778203" height="189.94113789778203" width="395.52" id="textblock"><g><svg viewBox="0 0 395.52 189.94113789778203" height="189.94113789778203" width="395.52"><g transform="matrix(1,0,0,1,0,0)"><svg width="395.52" viewBox="2.05 -37.9 103.69 49.8" height="189.94113789778203" data-palette-color="#ff4057"><path d="M17.9-24.6L17.2-21.05Q15.1-21.7 13.48-21.93 11.85-22.15 10.5-22.15L10.5-22.15Q8.75-22.15 7.58-21.3 6.4-20.45 6.4-19.1L6.4-19.1Q6.45-17.9 7.45-17.05 8.45-16.2 9.78-15.53 11.1-14.85 12.73-14.05 14.35-13.25 15.78-12.25 17.2-11.25 18.1-9.85 19-8.45 19.05-6.5L19.05-6.5Q19-4.4 18.13-3.03 17.25-1.65 15.88-0.83 14.5 0 12.9 0.33 11.3 0.65 9.9 0.65L9.9 0.65Q8.1 0.65 6.18 0.45 4.25 0.25 2.05-0.4L2.05-0.4 2.8-4Q5.05-3.4 6.9-3.13 8.75-2.85 9.95-2.85L9.95-2.85Q10.85-2.85 11.73-3.05 12.6-3.25 13.3-3.63 14-4 14.43-4.6 14.85-5.2 14.85-5.95L14.85-5.95Q14.8-7.35 13.9-8.33 13-9.3 11.58-10.08 10.15-10.85 8.53-11.63 6.9-12.4 5.48-13.43 4.05-14.45 3.1-15.88 2.15-17.3 2.15-19.4L2.15-19.4Q2.15-20.9 2.93-22.08 3.7-23.25 4.93-24.03 6.15-24.8 7.63-25.23 9.1-25.65 10.5-25.65L10.5-25.65Q11.95-25.65 13.75-25.43 15.55-25.2 17.9-24.6L17.9-24.6ZM38.45-5.85L38.45-11.55Q37.45-11.5 36.55-11.45 35.65-11.4 34.77-11.33 33.9-11.25 33.2-11.15L33.2-11.15Q29.6-10.7 28.1-9.58 26.6-8.45 26.6-6.35L26.6-6.35Q26.6-4.6 27.67-3.73 28.75-2.85 30.5-2.85L30.5-2.85Q32.9-2.85 34.77-3.68 36.65-4.5 38.45-5.85L38.45-5.85ZM38.9 0.4L38.4-2.35Q36.05-1 34.02-0.18 32 0.65 29.65 0.65L29.65 0.65Q26.3 0.65 24.32-0.98 22.35-2.6 22.35-6.35L22.35-6.35Q22.35-8.3 23.35-9.75 24.35-11.2 25.97-12.18 27.6-13.15 29.65-13.7 31.7-14.25 33.85-14.4L33.85-14.4Q34.75-14.5 36.2-14.58 37.65-14.65 38.45-14.7L38.45-14.7Q38.45-16.45 38.35-17.82 38.25-19.2 37.75-20.18 37.25-21.15 36.27-21.65 35.3-22.15 33.5-22.15L33.5-22.15Q32.05-22.15 30.7-21.98 29.35-21.8 28.3-21.6L28.3-21.6Q27.05-21.35 26-21.05L26-21.05 25.2-24.5Q26.45-24.8 27.9-25.05L27.9-25.05Q29.15-25.3 30.8-25.48 32.45-25.65 34.35-25.65L34.35-25.65Q36.9-25.65 38.47-24.9 40.05-24.15 40.92-22.88 41.8-21.6 42.12-19.98 42.45-18.35 42.45-16.55L42.45-16.55 42.45-4.55Q42.45-3.85 42.47-3.08 42.5-2.3 42.57-1.55 42.65-0.8 42.75 0L42.75 0 38.9 0.4ZM49.5-25.1L53.5-25.7 53.5-0.45Q53.5 4.05 51.85 6.98 50.2 9.9 46.7 11.9L46.7 11.9 44.65 8.35Q46.15 7.45 47.1 6.38 48.05 5.3 48.57 4.08 49.1 2.85 49.3 1.58 49.5 0.3 49.5-1L49.5-1 49.5-25.1ZM48.7-32.35L48.7-32.35Q48.7-33.5 49.47-34.27 50.25-35.05 51.4-35.05L51.4-35.05Q52.6-35.05 53.42-34.27 54.25-33.5 54.25-32.35L54.25-32.35Q54.25-31.2 53.42-30.43 52.6-29.65 51.4-29.65L51.4-29.65Q50.25-29.65 49.47-30.43 48.7-31.2 48.7-32.35ZM74.69-5.85L74.69-11.55Q73.69-11.5 72.79-11.45 71.89-11.4 71.02-11.33 70.14-11.25 69.44-11.15L69.44-11.15Q65.84-10.7 64.34-9.58 62.84-8.45 62.84-6.35L62.84-6.35Q62.84-4.6 63.92-3.73 64.99-2.85 66.74-2.85L66.74-2.85Q69.14-2.85 71.02-3.68 72.89-4.5 74.69-5.85L74.69-5.85ZM75.14 0.4L74.64-2.35Q72.29-1 70.27-0.18 68.24 0.65 65.89 0.65L65.89 0.65Q62.54 0.65 60.57-0.98 58.59-2.6 58.59-6.35L58.59-6.35Q58.59-8.3 59.59-9.75 60.59-11.2 62.22-12.18 63.84-13.15 65.89-13.7 67.94-14.25 70.09-14.4L70.09-14.4Q70.99-14.5 72.44-14.58 73.89-14.65 74.69-14.7L74.69-14.7Q74.69-16.45 74.59-17.82 74.49-19.2 73.99-20.18 73.49-21.15 72.52-21.65 71.54-22.15 69.74-22.15L69.74-22.15Q68.29-22.15 66.94-21.98 65.59-21.8 64.54-21.6L64.54-21.6Q63.29-21.35 62.24-21.05L62.24-21.05 61.44-24.5Q62.69-24.8 64.14-25.05L64.14-25.05Q65.39-25.3 67.04-25.48 68.69-25.65 70.59-25.65L70.59-25.65Q73.14-25.65 74.72-24.9 76.29-24.15 77.17-22.88 78.04-21.6 78.37-19.98 78.69-18.35 78.69-16.55L78.69-16.55 78.69-4.55Q78.69-3.85 78.72-3.08 78.74-2.3 78.82-1.55 78.89-0.8 78.99 0L78.99 0 75.14 0.4ZM101.44-5.5L101.44-21.4Q99.64-21.9 98.64-22.03 97.64-22.15 96.59-22.15L96.59-22.15Q94.49-22.15 92.99-21.4 91.49-20.65 90.52-19.33 89.54-18 89.09-16.28 88.64-14.55 88.64-12.6L88.64-12.6Q88.64-10.85 89.02-9.1 89.39-7.35 90.19-5.95 90.99-4.55 92.14-3.7 93.29-2.85 94.89-2.85L94.89-2.85Q95.99-2.85 97.17-3.25 98.34-3.65 99.34-4.17 100.34-4.7 101.44-5.5L101.44-5.5ZM101.89 0.4L101.49-2Q100.34-1.2 99.27-0.68 98.19-0.15 96.92 0.25 95.64 0.65 94.44 0.65L94.44 0.65Q89.74 0.65 87.07-2.68 84.39-6 84.39-12.4L84.39-12.4Q84.39-16.2 85.62-18.75 86.84-21.3 88.69-22.83 90.54-24.35 92.67-25 94.79-25.65 96.59-25.65L96.59-25.65Q97.49-25.65 98.49-25.53 99.49-25.4 101.44-24.9L101.44-24.9 101.44-37.45 105.44-37.9 105.44-4.55Q105.44-3.85 105.47-3.08 105.49-2.3 105.57-1.55 105.64-0.8 105.74 0L105.74 0 101.89 0.4Z" opacity="1" transform="matrix(1,0,0,1,0,0)" fill="#ff4057" class="wordmark-text-0" data-fill-palette-color="primary" id="text-0"></path></svg></g></svg></g></svg></g></svg></g><g transform="matrix(1,0,0,1,77.20771614822975,0)"><svg viewBox="0 0 243.08216770354042 262.49865257473476" height="262.49865257473476" width="243.08216770354042"><g><svg xmlns="http://www.w3.org/2000/svg" xmlns:xlink="http://www.w3.org/1999/xlink" version="1.1" x="8" y="0" viewBox="17.3 12.2 65.4 75.6" style="enable-background:new 0 0 100 100;" xml:space="preserve" height="262.49865257473476" width="227.08216770354042" class="icon-icon-0" data-fill-palette-color="accent" id="icon-0"><path d="M50 12.2L17.3 31.1V68.9L50 87.8 82.7 68.9V31.1zM32.1 37.4L50 16 67 37.4zM67.3 39.4L50 70.4 31.8 39.4zM48.1 71L20.4 66.5 30.2 40.6zM68.9 40.7L79.6 66.6 51.9 71.1zM69.2 37.1L52.6 16 79.6 31.6zM29.8 37.1L20.4 31.6 47.2 16.1zM28.8 38.8L19.3 63.8V33.3zM49 73.2V84.9L20.9 68.7zM51 73.2L79.1 68.7 51 84.9zM70.3 38.8L80.8 33.2V64.1z" fill="#dcdcdc" data-fill-palette-color="accent"></path></svg></g></svg></g><g></g></svg></g><defs></defs></svg><rect width="175.70212358540704" height="247.2" fill="none" stroke="none" visibility="hidden"></rect></g></svg></g></svg>